HIERARCHY
ROOT Hips
{
	OFFSET 4.076200 -17.275196 43.303001
	CHANNELS 6 Xposition Yposition Zposition Zrotation Xrotation Yrotation
	JOINT Chest
	{
		OFFSET -0.689800 0.941999 5.341000
		CHANNELS 6 Xposition Yposition Zposition Zrotation Xrotation Yrotation
		JOINT Chest2
		{
			OFFSET 0.000000 0.000000 4.278900
			CHANNELS 6 Xposition Yposition Zposition Zrotation Xrotation Yrotation
			JOINT Neck
			{
				OFFSET 0.000000 0.000000 9.970299
				CHANNELS 6 Xposition Yposition Zposition Zrotation Xrotation Yrotation
				JOINT Head
				{
					OFFSET 0.000000 0.000002 2.173901
					CHANNELS 6 Xposition Yposition Zposition Zrotation Xrotation Yrotation
					End Site
					{
						OFFSET 0.000000 0.000000 6.488197
					}
				}
			}
			JOINT LeftCollar
			{
				OFFSET 2.472300 -0.285801 5.433899
				CHANNELS 6 Xposition Yposition Zposition Zrotation Xrotation Yrotation
				JOINT LeftShoulder
				{
					OFFSET 5.327700 0.000000 0.000000
					CHANNELS 6 Xposition Yposition Zposition Zrotation Xrotation Yrotation
					JOINT LeftElbow
					{
						OFFSET 0.000000 0.000000 -10.713001
						CHANNELS 6 Xposition Yposition Zposition Zrotation Xrotation Yrotation
						JOINT LeftWrist
						{
							OFFSET 0.000000 -0.000002 -13.396900
							CHANNELS 6 Xposition Yposition Zposition Zrotation Xrotation Yrotation
							End Site
							{
								OFFSET 0.000000 0.000000 -2.173901
							}
						}
					}
				}
			}
			JOINT RightCollar
			{
				OFFSET -2.589400 -1.358400 6.105000
				CHANNELS 6 Xposition Yposition Zposition Zrotation Xrotation Yrotation
				JOINT RightShoulder
				{
					OFFSET -4.580200 0.000000 0.000000
					CHANNELS 6 Xposition Yposition Zposition Zrotation Xrotation Yrotation
					JOINT RightElbow
					{
						OFFSET 0.000000 0.000000 -10.761101
						CHANNELS 6 Xposition Yposition Zposition Zrotation Xrotation Yrotation
						JOINT RightWrist
						{
							OFFSET 0.000000 -0.000002 -13.028500
							CHANNELS 6 Xposition Yposition Zposition Zrotation Xrotation Yrotation
							End Site
							{
								OFFSET 0.000000 0.000000 -2.173901
							}
						}
					}
				}
			}
		}
	}
	JOINT LeftHip
	{
		OFFSET 2.532500 0.486900 -2.489700
		CHANNELS 6 Xposition Yposition Zposition Zrotation Xrotation Yrotation
		JOINT LeftKnee
		{
			OFFSET 0.000000 -0.000002 -18.199398
			CHANNELS 6 Xposition Yposition Zposition Zrotation Xrotation Yrotation
			JOINT LeftAnkle
			{
				OFFSET 0.000000 -0.000002 -16.083900
				CHANNELS 6 Xposition Yposition Zposition Zrotation Xrotation Yrotation
				End Site
				{
					OFFSET 0.000000 -8.641399 0.000000
				}
			}
		}
	}
	JOINT RightHip
	{
		OFFSET -2.112700 -0.049900 -2.711102
		CHANNELS 6 Xposition Yposition Zposition Zrotation Xrotation Yrotation
		JOINT RightKnee
		{
			OFFSET 0.000000 -0.000002 -19.127298
			CHANNELS 6 Xposition Yposition Zposition Zrotation Xrotation Yrotation
			JOINT RightAnkle
			{
				OFFSET 0.000000 -0.000002 -14.874901
				CHANNELS 6 Xposition Yposition Zposition Zrotation Xrotation Yrotation
				End Site
				{
					OFFSET 0.000000 -8.198299 0.000000
				}
			}
		}
	}
}
MOTION
Frames: 8
Frame Time: 0.041667
-35.565300 -13.335897 43.286602 1745.471016 8.389014 6.873067 -0.689801 0.941998 5.341007 -11.427377 -5.209512 -11.481512 0.000000 -0.000000 4.278900 4.142955 -1.492772 -0.187658 0.000001 -0.000003 9.970296 -22.083806 -2.826569 -18.136174 -0.000003 -0.000003 2.173894 18.110163 -3.777215 -5.772714 2.472299 -0.285802 5.433896 -18.507127 14.065484 -22.342676 5.327701 -0.000003 -0.000005 -8.768551 -2.613072 -51.238624 0.000000 -0.000000 -10.713008 255.360829 -125.598204 303.713842 -0.000002 -0.000003 -13.396900 76.583305 1.833308 -45.377134 -2.589397 -1.358397 6.105001 -6.275923 -8.428709 -0.984721 -4.580199 0.000000 0.000000 -15.814801 -59.409470 83.535092 0.000002 -0.000005 -10.761102 -58.649079 -13.807924 -12.967579 0.000005 -0.000009 -13.028503 328.537700 -4.592509 710.561300 2.532499 0.486895 -2.489697 29.556749 -30.555183 18.133097 0.000003 -0.000001 -18.199404 -10.313916 48.018890 7.461973 -0.000006 -0.000005 -16.083902 9.769255 34.303334 -15.940608 -2.112701 -0.049908 -2.711099 -46.341245 -36.855902 -14.295630 -0.000003 0.000003 -19.127298 595.156948 107.410257 -559.307143 0.000000 -0.000000 -14.874898 349.850458 41.661470 -9.100482
-35.506306 -13.495399 43.217701 1749.132981 8.878197 6.858331 -0.689797 0.942000 5.340991 -11.631604 -5.889902 -11.064719 0.000001 -0.000001 4.278904 4.315804 -1.446643 -0.185078 0.000002 0.000003 9.970301 -24.167941 -1.989478 -17.612444 0.000002 0.000002 2.173892 20.062275 -4.166943 -6.653841 2.472299 -0.285803 5.433906 -18.426652 13.864708 -22.949927 5.327697 -0.000003 -0.000001 -9.171844 -2.034244 -51.055831 0.000013 -0.000001 -10.713003 253.863706 -125.770379 302.474326 -0.000001 0.000005 -13.396902 75.493692 1.923538 -45.359925 -2.589400 -1.358397 6.105005 -6.749576 -8.920022 -0.778603 -4.580199 0.000000 0.000002 -16.301869 -58.891844 82.690013 0.000002 -0.000004 -10.761109 -59.011660 -13.563532 -12.963441 0.000005 -0.000005 -13.028496 329.858276 -4.775883 712.166995 2.532505 0.486899 -2.489710 28.103182 -29.908285 18.099926 0.000002 -0.000000 -18.199398 -11.736529 47.148355 8.485680 -0.000000 -0.000001 -16.083900 8.858505 35.017246 -16.855215 -2.112697 -0.049901 -2.711109 -49.162465 -37.829648 -17.801326 -0.000002 0.000000 -19.127296 627.628596 108.298824 -586.400045 -0.000003 -0.000001 -14.874904 345.411928 39.424333 -9.024516
-35.431004 -13.640499 43.158100 1752.915813 9.749065 6.527067 -0.689802 0.942003 5.340999 -12.038722 -7.071726 -10.249417 -0.000000 -0.000003 4.278896 4.595310 -1.311660 -0.153951 -0.000000 0.000003 9.970298 -26.777958 -1.011072 -17.030052 -0.000002 -0.000001 2.173897 22.337131 -4.479512 -7.621842 2.472300 -0.285801 5.433906 -18.223553 13.606173 -23.748846 5.327707 -0.000000 0.000006 -9.523807 -1.566529 -50.863227 0.000003 0.000001 -10.713007 252.465184 -125.882558 301.384392 -0.000002 0.000000 -13.396894 74.906712 1.928852 -45.348273 -2.589398 -1.358397 6.105007 -7.128917 -9.512470 -0.474246 -4.580199 -0.000008 -0.000005 -17.499375 -58.090069 81.396874 0.000003 0.000001 -10.761101 -58.783907 -13.517545 -12.865965 -0.000005 -0.000006 -13.028500 330.246395 -4.914768 713.656632 2.532496 0.486900 -2.489702 27.548444 -29.529821 18.838324 0.000004 0.000003 -18.199402 -14.835668 46.631201 10.332977 -0.000003 -0.000004 -16.083900 8.280850 34.992268 -16.116929 -2.112703 -0.049901 -2.711105 -51.141847 -38.900885 -21.163922 -0.000001 0.000001 -19.127296 630.644589 107.168250 -588.077320 0.000001 0.000001 -14.874899 341.124045 40.520357 7.325199
-35.353302 -13.775598 43.103901 1756.916118 10.811874 6.190735 -0.689801 0.941996 5.340992 -12.681873 -8.580073 -9.542858 0.000001 -0.000002 4.278905 4.859148 -1.129090 -0.128985 0.000002 -0.000004 9.970291 -24.329626 -1.817411 -17.712668 0.000005 0.000001 2.173904 21.113471 -4.298288 -6.650189 2.472301 -0.285805 5.433900 -18.700201 14.282431 -24.026743 5.327688 -0.000004 -0.000005 -9.121062 -1.428690 -50.989715 -0.000006 0.000007 -10.713001 250.570489 -126.652485 299.559393 0.000000 0.000010 -13.396897 73.680092 1.767591 -45.320013 -2.589398 -1.358400 6.104997 -6.723110 -8.758359 -0.753025 -4.580202 0.000001 -0.000000 -19.153746 -59.806639 80.495542 0.000002 -0.000006 -10.761104 -57.528532 -13.415689 -12.698565 0.000000 -0.000003 -13.028496 330.599925 -5.145817 714.670779 2.532498 0.486895 -2.489709 27.036964 -29.362696 19.761793 0.000005 0.000002 -18.199398 -17.187147 46.279531 11.638987 0.000001 -0.000003 -16.083900 7.585694 35.326497 -15.547259 -2.112700 -0.049901 -2.711104 -52.552268 -39.866103 -24.364004 0.000000 0.000005 -19.127298 636.174092 108.020029 -591.475913 0.000003 0.000001 -14.874900 339.357484 38.969808 13.128268
-35.263199 -13.914396 43.071400 1760.872710 11.716229 6.053253 -0.689794 0.942002 5.340993 -13.799297 -9.591183 -8.999476 0.000000 -0.000004 4.278895 5.404534 -0.954720 -0.104821 -0.000005 -0.000001 9.970296 -19.733958 -3.373622 -19.780131 0.000004 0.000001 2.173892 18.218042 -3.761478 -4.284535 2.472298 -0.285799 5.433903 -18.958985 14.311101 -24.792166 5.327697 -0.000005 0.000003 -8.577401 -1.005665 -50.531228 0.000006 -0.000006 -10.712999 248.653610 -127.223461 297.917006 0.000005 0.000004 -13.396894 72.489494 1.872667 -45.162389 -2.589400 -1.358395 6.105004 -5.942750 -7.906622 -0.912164 -4.580199 -0.000001 0.000003 -21.310945 -60.093801 79.145001 0.000007 -0.000004 -10.761098 -57.973901 -13.341432 -12.756206 0.000010 -0.000008 -13.028499 331.003617 -5.230871 715.391391 2.532502 0.486899 -2.489711 26.911388 -29.119193 20.511572 0.000006 0.000003 -18.199398 -18.330660 46.188423 12.193485 -0.000001 -0.000003 -16.083900 6.140033 35.701491 -14.678488 -2.112696 -0.049900 -2.711107 -52.807908 -40.524964 -27.030448 -0.000002 0.000000 -19.127298 621.201662 105.574166 -576.601510 -0.000002 -0.000001 -14.874899 344.781228 38.030606 15.495708
-35.162910 -14.058097 43.061901 1764.876513 12.344980 6.246231 -0.689805 0.942001 5.341012 -14.933370 -9.925281 -8.897038 -0.000003 -0.000001 4.278904 5.768122 -0.874758 -0.174341 0.000005 -0.000001 9.970303 -15.444868 -5.270355 -21.315904 -0.000001 -0.000003 2.173893 15.653267 -3.269238 -2.266753 2.472301 -0.285801 5.433904 -19.002525 14.300435 -25.125729 5.327695 -0.000006 -0.000010 -8.138433 -0.821669 -50.228740 -0.000010 0.000000 -10.713000 246.701898 -127.834831 296.087334 0.000001 0.000006 -13.396904 71.628535 1.506837 -45.103844 -2.589397 -1.358400 6.105001 -5.185402 -6.940285 -1.270419 -4.580198 -0.000004 0.000000 -22.809792 -61.095837 78.164869 0.000005 -0.000002 -10.761099 -57.621245 -13.289183 -12.606178 0.000002 -0.000007 -13.028504 330.991049 -5.374935 716.306855 2.532495 0.486899 -2.489700 26.502816 -28.765376 20.735541 0.000005 -0.000002 -18.199398 -19.994313 46.064985 13.052210 -0.000003 -0.000002 -16.083902 5.616223 36.536550 -15.718536 -2.112702 -0.049902 -2.711099 -52.868471 -40.627468 -29.548375 -0.000005 0.000006 -19.127295 584.239301 105.131467 -540.884757 0.000001 -0.000000 -14.874906 356.922026 38.978271 13.124886
-35.050503 -14.227296 43.077896 1769.013422 12.642648 6.458902 -0.689797 0.941999 5.340991 -15.924494 -9.813224 -8.799384 0.000003 -0.000003 4.278902 6.042499 -0.855727 -0.090909 0.000000 -0.000000 9.970306 -11.552281 -6.990830 -22.327759 0.000003 -0.000000 2.173894 13.321108 -2.900721 -0.708781 2.472300 -0.285804 5.433905 -19.018298 14.276222 -25.682582 5.327696 0.000000 -0.000004 -7.979019 -0.588738 -49.859602 0.000000 0.000000 -10.713003 245.624285 -127.877247 294.872408 0.000002 0.000000 -13.396899 71.805437 1.470386 -45.109889 -2.589401 -1.358398 6.105008 -4.949416 -6.499624 -1.705597 -4.580198 -0.000001 0.000007 -23.574871 -61.372064 77.517005 0.000000 0.000002 -10.761105 -57.421271 -13.200620 -12.421935 -0.000001 -0.000003 -13.028494 330.919578 -5.544963 717.150083 2.532503 0.486898 -2.489710 25.889724 -28.084058 20.730544 -0.000002 -0.000004 -18.199392 -21.692416 46.032453 13.822435 -0.000003 -0.000000 -16.083897 4.706436 36.693877 -14.973318 -2.112699 -0.049900 -2.711106 -52.438398 -40.438084 -31.246210 -0.000003 0.000002 -19.127298 541.710445 116.344978 -503.962284 0.000001 0.000004 -14.874894 374.202186 43.811904 15.748686
-34.919498 -14.424096 43.108395 1773.140058 12.724815 6.713714 -0.689799 0.942003 5.340997 -16.378816 -9.646111 -8.703651 0.000002 -0.000007 4.278898 6.106299 -1.055555 -0.119965 0.000003 -0.000001 9.970298 -8.183142 -8.128387 -22.596178 0.000003 0.000001 2.173888 11.438075 -2.699174 0.228658 2.472301 -0.285805 5.433901 -19.656043 15.284623 -25.105827 5.327706 -0.000007 0.000001 -7.636035 -0.749902 -50.354456 0.000003 -0.000003 -10.713003 244.385480 -128.309407 293.262068 0.000006 -0.000002 -13.396894 71.569782 1.309048 -44.981450 -2.589397 -1.358401 6.105006 -4.514935 -5.308040 -2.612497 -4.580197 0.000005 0.000001 -23.516866 -61.820233 78.146892 0.000001 0.000007 -10.761100 -58.103292 -13.000090 -12.327981 0.000005 -0.000003 -13.028499 331.074979 -5.744786 717.680269 2.532498 0.486900 -2.489703 24.786080 -27.196297 20.332297 -0.000002 -0.000002 -18.199390 -22.811206 45.801285 14.337129 0.000002 0.000001 -16.083904 3.749483 37.539095 -14.792672 -2.112698 -0.049896 -2.711101 -51.450162 -40.012409 -31.998173 0.000000 -0.000002 -19.127300 539.376105 120.888310 -502.907266 0.000000 -0.000001 -14.874900 380.781680 42.788123 16.233568
